<?xml version="1.0" standalone="no"?>
<!DOCTYPE svg PUBLIC "-//W3C//DTD SVG 20010904//EN"
 "http://www.w3.org/TR/2001/REC-SVG-20010904/DTD/svg10.dtd">
<svg version="1.0" xmlns="http://www.w3.org/2000/svg"
 width="512.000000pt" height="512.000000pt" viewBox="0 0 512.000000 512.000000"
 preserveAspectRatio="xMidYMid meet">

<g transform="translate(0.000000,512.000000) scale(0.100000,-0.100000)"
fill="#000000" stroke="none">
<path d="M2415 4884 c-120 -10 -280 -37 -404 -70 -514 -134 -958 -452 -1257
-901 -87 -131 -194 -350 -245 -505 l-43 -127 -176 -3 c-176 -3 -177 -3 -213
-31 -72 -55 -72 -56 -72 -392 1 -341 11 -437 75 -690 48 -191 93 -312 185
-500 132 -270 270 -461 489 -680 304 -303 624 -500 1027 -630 262 -85 484
-118 779 -118 420 0 756 78 1136 263 497 244 913 661 1159 1165 92 188 136
308 185 499 62 244 75 365 75 707 l0 295 -28 37 c-52 68 -62 71 -256 77 l-176
5 -31 95 c-103 317 -270 597 -499 838 -331 348 -783 581 -1254 646 -115 17
-365 27 -456 20z m321 -245 c742 -72 1370 -551 1628 -1241 20 -53 36 -102 36
-108 0 -7 -569 -10 -1840 -10 -1012 0 -1840 2 -1840 4 0 3 14 44 31 93 68 193
198 418 343 590 397 474 1028 732 1642 672z"/>
</g>
</svg>
